<?xml version="1.0" encoding="utf-8"?>
<!-- Generator: Adobe Illustrator 15.0.0, SVG Export Plug-In  -->
<!DOCTYPE svg PUBLIC "-//W3C//DTD SVG 1.1//EN" "http://www.w3.org/Graphics/SVG/1.1/DTD/svg11.dtd" [
	<!ENTITY ns_flows "http://ns.adobe.com/Flows/1.0/">
]>
<svg version="1.1"
	 xmlns="http://www.w3.org/2000/svg" xmlns:xlink="http://www.w3.org/1999/xlink" xmlns:a="http://ns.adobe.com/AdobeSVGViewerExtensions/3.0/"
	 x="0px" y="0px" width="506px" height="162px" viewBox="-3.059 -2.408 506 162" enable-background="new -3.059 -2.408 506 162"
	 xml:space="preserve">
<defs>
</defs>
<path fill="#0D0F0F" d="M100.198,16.442l-2.964,10.59h6.085L100.198,16.442z M81.551,71.539h-8.513L97.925,0.487h4.843
	l24.996,71.052h-8.667l-12.72-36.68H94.311L81.551,71.539z"/>
<polygon fill="#0D0F0F" points="148.292,16.14 138.529,71.539 130.403,71.539 143.087,0.321 149.496,0.321 160.434,20.991 
	171.311,0.321 177.684,0.404 190.365,71.539 182.201,71.539 172.441,16.14 160.46,39.436 "/>
<polygon fill="#0D0F0F" points="204.448,63.527 222.687,63.527 222.687,71.539 196.365,71.539 196.365,0.446 220.117,0.446 
	220.074,8.544 204.449,8.544 204.449,20.375 220.095,20.375 220.095,28.382 204.493,28.382 "/>
<path fill="#0D0F0F" d="M260.632,71.237c-4.055-3.941-7.295-7.964-10.509-12.291c-1.684-2.267-3.284-4.618-4.575-7.129
	c-2.426-4.721-4.255-9.744-5.893-14.793c-0.907-2.798-1.266-5.866-2.166-8.554l-0.023,42.747l-8.045-0.015L229.402,0
	c0,0,22.334-0.001,25.804,0c3.137,0.623,5.295,0.863,7.469,2.298c1.941,1.282,3.75,3.129,4.51,5.328
	c1.475,4.254,1.461,9.437-0.482,13.498c-1.346,2.816-4.189,4.94-7.074,6.135c-4.203,1.742-9.075,0.876-13.615,0.971
	c0.028,5.77,0.607,8.594,1.769,12.711c0.97,3.436,2.759,6.588,4.287,9.814c1.508,3.179,2.951,6.407,4.813,9.393
	c2.488,3.989,4.645,6.579,8.443,11.296C265.326,71.444,261.72,71.76,260.632,71.237L260.632,71.237z M237.47,19.994
	c6.273,0.066,13.864-0.016,18.619,0c1.771-1.067,3.1-2.028,3.779-3.641c0.631-1.497,0.639-3.394-0.031-4.875
	c-0.689-1.529-1.555-2.666-3.754-3.352c-3.619,0.064-18.613,0-18.613,0V19.994z"/>
<rect x="275.001" y="0.475" fill="#0D0F0F" width="8.156" height="71.063"/>
<path fill="#0D0F0F" d="M324.505,2.157c0.162,3.607,0.268,4.952,0.479,9.537c-2.346-1.224-3.494-2.503-5.537-2.93
	c-2.162-0.45-4.535-0.274-6.604,0.497c-1.996,0.745-3.729,2.21-5.133,3.814c-1.76,2.014-2.869,4.547-3.887,7.021
	c-1.154,2.799-1.959,5.756-2.475,8.739c-0.604,3.5-0.811,7.082-0.705,10.633c0.115,3.809,0.391,7.678,1.436,11.342
	c0.572,2.007,1.465,3.945,2.609,5.69c1.039,1.581,2.055,3.298,3.789,4.223c2.609,1.389,5.596,2.661,8.588,2.637
	c3.205-0.027,6.662-1.231,9.141-2.973l0.088,9.288c-0.822,0.119-3.791,1.466-5.787,1.691c-2.963,0.333-6.035,0.193-8.926-0.535
	c-3.049-0.77-6.107-2-8.557-3.972c-3.09-2.489-5.4-5.944-7.201-9.48c-1.303-2.561-1.975-5.425-2.482-8.252
	c-0.734-4.1-0.969-8.31-0.781-12.47c0.268-5.914,0.828-11.939,2.705-17.554c1.346-4.024,3.238-8.013,6.02-11.218
	c2.242-2.586,5.111-4.773,8.273-6.083c3.141-1.301,6.705-1.908,10.084-1.536C321.371,0.458,323.736,1.665,324.505,2.157
	L324.505,2.157z"/>
<polygon fill="#0D0F0F" points="394.597,19.472 394.503,71.539 386.408,71.539 386.478,0.364 394.517,0.364 420.001,51.954 
	420.277,0.364 428.39,0.364 428.371,71.539 420.32,71.539 "/>
<path fill="#0D0F0F" d="M355.968,16.442l-2.965,10.59h6.086L355.968,16.442z M337.32,71.539h-8.512l24.887-71.052h4.842
	l24.996,71.052h-8.666l-12.721-36.68H350.08L337.32,71.539z"/>
<path fill="#0D0F0F" d="M29.223,103.446H8.043v5.545h21.18V103.446z M8.043,156.149H0V85.085h8.043V95.63h21.18V85.085h8.043v71.063
	h-8.043v-39.252H8.043V156.149z"/>
<path fill="#0D0F0F" d="M69.448,145.64v10.6H58.937v-10.6H69.448z M64.665,102.564c-1.994-0.12-4.077,0.23-5.903,1.041
	c-1.92,0.853-3.622,2.263-4.973,3.871c-1.261,1.503-2.259,3.303-2.755,5.2c-0.479,1.833-0.398,3.805-0.136,5.681
	c0.208,1.485,0.616,2.979,1.335,4.295c0.705,1.288,1.758,2.373,2.836,3.37c0.965,0.891,2.012,1.741,3.205,2.291
	c1.304,0.602,2.752,0.89,4.181,1.039c1.471,0.154,2.978,0.109,4.433-0.155c1.239-0.226,2.484-0.59,3.582-1.207
	c1.604-0.903,3.103-2.1,4.225-3.56c1.18-1.534,2.084-3.356,2.473-5.252c0.496-2.417,0.405-5.022-0.264-7.398
	c-0.46-1.636-1.417-3.135-2.502-4.442c-0.943-1.137-2.094-2.146-3.393-2.849C69.066,103.436,66.871,102.697,64.665,102.564
	L64.665,102.564z M64.814,94.166c3.342,0.104,6.737,0.989,9.71,2.521c2.646,1.362,5.006,3.393,6.846,5.732
	c1.821,2.316,3.238,5.058,3.915,7.926c0.858,3.634,0.824,7.548,0.055,11.201c-0.491,2.333-1.597,4.544-2.915,6.531
	c-1.372,2.069-3.129,3.912-5.083,5.444c-1.672,1.312-3.55,2.437-5.564,3.112c-2.793,0.937-5.81,1.29-8.754,1.21
	c-2.473-0.066-4.991-0.486-7.284-1.412c-2.127-0.857-4.046-2.233-5.772-3.743c-1.67-1.461-3.155-3.173-4.335-5.051
	c-1.164-1.853-2.201-3.866-2.633-6.011c-0.839-4.169-1.006-8.677,0.198-12.755c0.876-2.969,2.816-5.605,4.922-7.874
	c1.872-2.016,4.136-3.777,6.656-4.88C57.897,94.751,61.406,94.06,64.814,94.166L64.814,94.166z"/>
<path fill="#0D0F0F" d="M202.971,145.64v10.6H192.46v-10.6H202.971z M198.188,102.564c-1.994-0.12-4.077,0.23-5.903,1.041
	c-1.92,0.853-3.622,2.263-4.973,3.871c-1.261,1.503-2.259,3.303-2.755,5.2c-0.479,1.833-0.398,3.805-0.136,5.681
	c0.208,1.485,0.616,2.979,1.335,4.295c0.704,1.288,1.758,2.373,2.836,3.37c0.965,0.891,2.012,1.741,3.205,2.291
	c1.304,0.602,2.752,0.89,4.181,1.039c1.47,0.154,2.978,0.109,4.433-0.155c1.239-0.226,2.484-0.59,3.582-1.207
	c1.605-0.903,3.103-2.1,4.226-3.56c1.18-1.534,2.084-3.356,2.473-5.252c0.496-2.417,0.405-5.022-0.264-7.398
	c-0.46-1.636-1.417-3.135-2.502-4.442c-0.943-1.137-2.094-2.146-3.393-2.849C202.59,103.436,200.395,102.697,198.188,102.564
	L198.188,102.564z M198.337,94.166c3.342,0.104,6.737,0.989,9.71,2.521c2.646,1.362,5.006,3.393,6.846,5.732
	c1.821,2.316,3.238,5.058,3.915,7.926c0.858,3.634,0.824,7.548,0.055,11.201c-0.491,2.333-1.597,4.544-2.915,6.531
	c-1.372,2.069-3.129,3.912-5.083,5.444c-1.672,1.312-3.55,2.437-5.564,3.112c-2.793,0.937-5.81,1.29-8.754,1.21
	c-2.473-0.066-4.991-0.486-7.284-1.412c-2.127-0.857-4.046-2.233-5.772-3.743c-1.67-1.461-3.155-3.173-4.335-5.051
	c-1.164-1.853-2.201-3.866-2.633-6.011c-0.839-4.169-1.006-8.677,0.198-12.755c0.876-2.969,2.816-5.605,4.922-7.874
	c1.873-2.016,4.136-3.777,6.656-4.88C191.421,94.751,194.93,94.06,198.337,94.166L198.337,94.166z"/>
<path fill="#0D0F0F" d="M122.064,155.938c-4.055-3.941-7.294-7.965-10.509-12.291c-1.684-2.267-3.285-4.618-4.575-7.129
	c-2.427-4.721-4.256-9.744-5.893-14.794c-0.907-2.798-1.266-5.865-2.166-8.553l-0.023,42.746l-8.045-0.014l-0.019-71.203
	c0,0,22.334,0,25.804,0c3.137,0.623,5.295,0.863,7.469,2.299c1.942,1.281,3.75,3.129,4.511,5.327
	c1.473,4.255,1.459,9.438-0.483,13.499c-1.347,2.815-4.19,4.94-7.074,6.135c-4.204,1.742-9.075,0.876-13.615,0.971
	c0.028,5.769,0.607,8.594,1.77,12.711c0.97,3.436,2.759,6.588,4.288,9.813c1.507,3.179,2.95,6.408,4.812,9.394
	c2.488,3.988,4.645,6.579,8.444,11.296C126.758,156.145,123.153,156.461,122.064,155.938L122.064,155.938z M98.902,104.695
	c6.273,0.065,13.864-0.017,18.62,0c1.77-1.067,3.099-2.029,3.778-3.641c0.631-1.497,0.639-3.395-0.03-4.875
	c-0.69-1.529-1.557-2.666-3.755-3.352c-3.62,0.063-18.613,0-18.613,0V104.695z"/>
<path fill="#0D0F0F" d="M167.539,155.938c-4.055-3.941-7.294-7.965-10.509-12.291c-1.684-2.267-3.284-4.618-4.575-7.129
	c-2.427-4.721-4.256-9.744-5.893-14.794c-0.907-2.798-1.266-5.865-2.166-8.553l-0.023,42.746l-8.045-0.014l-0.019-71.203
	c0,0,22.334,0,25.804,0c3.137,0.623,5.295,0.863,7.469,2.299c1.942,1.281,3.75,3.129,4.511,5.327
	c1.474,4.255,1.459,9.438-0.483,13.499c-1.347,2.815-4.191,4.94-7.074,6.135c-4.204,1.742-9.076,0.876-13.615,0.971
	c0.027,5.769,0.607,8.594,1.769,12.711c0.97,3.436,2.759,6.588,4.288,9.813c1.507,3.179,2.95,6.408,4.811,9.394
	c2.488,3.988,4.646,6.579,8.444,11.296C172.233,156.145,168.628,156.461,167.539,155.938L167.539,155.938z M144.376,104.695
	c6.273,0.065,13.865-0.017,18.62,0c1.771-1.067,3.099-2.029,3.778-3.641c0.631-1.497,0.639-3.395-0.03-4.875
	c-0.69-1.529-1.556-2.666-3.754-3.352c-3.62,0.063-18.614,0-18.614,0V104.695z"/>
<path fill="#0D0F0F" d="M255.539,155.938c-4.056-3.941-7.295-7.965-10.51-12.291c-1.684-2.267-3.284-4.618-4.575-7.129
	c-2.427-4.721-4.255-9.744-5.893-14.794c-0.907-2.798-1.266-5.865-2.166-8.553l-0.023,42.746l-8.045-0.014l-0.019-71.203
	c0,0,22.334,0,25.804,0c3.138,0.623,5.296,0.863,7.468,2.299c1.943,1.281,3.75,3.129,4.512,5.327
	c1.475,4.255,1.459,9.438-0.482,13.499c-1.348,2.815-4.191,4.94-7.074,6.135c-4.204,1.742-9.075,0.876-13.615,0.971
	c0.028,5.769,0.607,8.594,1.769,12.711c0.97,3.436,2.759,6.588,4.288,9.813c1.507,3.179,2.95,6.408,4.812,9.394
	c2.486,3.988,4.645,6.579,8.443,11.296C260.232,156.145,256.626,156.461,255.539,155.938L255.539,155.938z M232.376,104.695
	c6.273,0.065,13.864-0.017,18.62,0c1.77-1.067,3.1-2.029,3.777-3.641c0.633-1.497,0.639-3.395-0.029-4.875
	c-0.689-1.529-1.557-2.666-3.754-3.352c-3.62,0.063-18.613,0-18.613,0V104.695z"/>
<path fill="#0D0F0F" d="M304.162,144.67c3.73,2.959,4.84,2.764,7.535,3.145c2.865,0.405,6.012,0.254,8.623-0.991
	c3.266-1.559,6.045-4.412,7.752-7.604c1.678-3.137,2.027-6.929,1.984-10.485c-0.033-2.77-0.66-5.576-1.742-8.126
	c-0.775-1.829-2.07-3.405-3.324-4.946c-1.355-1.667-2.902-3.18-4.504-4.61c-1.531-1.366-3.277-2.471-4.859-3.777
	c-1.623-1.342-3.379-2.569-4.752-4.167c-1.605-1.868-3.393-3.834-3.986-6.226c-0.512-2.063-0.393-4.438,0.529-6.353
	c0.881-1.826,2.639-3.215,4.424-4.173c1.648-0.885,3.594-1.22,5.463-1.273c2.465-0.071,4.248,0.084,7.287,1.263l-1.762,7.839
	c-2.443-1.317-2.885-1.7-4.5-1.851c-0.867-0.081-1.842,0.039-2.561,0.531c-0.428,0.293-0.764,0.793-0.846,1.305
	c-0.098,0.627,0.16,1.301,0.496,1.84c1.307,2.106,3.691,3.312,5.584,4.914c2.139,1.813,4.492,3.379,6.518,5.317
	c1.988,1.902,4,3.85,5.496,6.159c2.016,3.114,3.668,6.555,4.545,10.159c0.664,2.729,0.76,5.617,0.48,8.411
	c-0.439,4.406-1.502,8.834-3.365,12.853c-0.938,2.025-2.309,3.863-3.848,5.481c-1.645,1.73-3.529,3.301-5.645,4.406
	c-2.279,1.192-4.82,1.956-7.373,2.285c-3.092,0.398-6.316,0.343-9.34-0.413c-2.959-0.74-4.246-0.581-8.256-3.947L304.162,144.67z"/>
<polygon fill="#0D0F0F" points="354.728,156.24 346.683,156.24 346.66,93.148 330.554,93.148 330.554,85.11 371.216,85.11 
	371.216,93.148 354.707,93.148 "/>
<polygon fill="#0D0F0F" points="450.291,85.087 460.107,85.087 475.582,108.445 491.394,85.004 501.068,85.046 479.656,117.247 
	479.656,156.24 471.544,156.24 471.544,117.14 "/>
<path fill="#0D0F0F" d="M390.73,145.64v10.6h-10.512v-10.6H390.73z M385.947,102.564c-1.994-0.12-4.076,0.23-5.902,1.041
	c-1.92,0.853-3.623,2.263-4.973,3.871c-1.262,1.503-2.26,3.303-2.756,5.2c-0.479,1.833-0.398,3.805-0.135,5.681
	c0.207,1.485,0.615,2.979,1.334,4.295c0.705,1.288,1.758,2.373,2.836,3.37c0.965,0.891,2.014,1.741,3.207,2.291
	c1.303,0.602,2.75,0.89,4.18,1.039c1.469,0.154,2.977,0.109,4.432-0.155c1.24-0.226,2.484-0.59,3.582-1.207
	c1.605-0.903,3.104-2.1,4.227-3.56c1.18-1.534,2.084-3.356,2.473-5.252c0.496-2.417,0.404-5.022-0.264-7.398
	c-0.461-1.636-1.418-3.135-2.502-4.442c-0.943-1.137-2.096-2.146-3.393-2.849C390.349,103.436,388.154,102.697,385.947,102.564
	L385.947,102.564z M386.095,94.166c3.344,0.104,6.738,0.989,9.711,2.521c2.646,1.362,5.006,3.393,6.846,5.732
	c1.82,2.316,3.238,5.058,3.914,7.926c0.859,3.634,0.824,7.548,0.057,11.201c-0.492,2.333-1.598,4.544-2.916,6.531
	c-1.371,2.069-3.129,3.912-5.082,5.444c-1.672,1.312-3.551,2.437-5.564,3.112c-2.793,0.937-5.811,1.29-8.754,1.21
	c-2.473-0.066-4.992-0.486-7.285-1.412c-2.127-0.857-4.045-2.233-5.771-3.743c-1.672-1.461-3.154-3.173-4.336-5.051
	c-1.164-1.853-2.201-3.866-2.633-6.011c-0.84-4.169-1.008-8.677,0.197-12.755c0.877-2.969,2.816-5.605,4.922-7.874
	c1.871-2.016,4.135-3.777,6.656-4.88C379.179,94.751,382.689,94.06,386.095,94.166L386.095,94.166z"/>
<path fill="#0D0F0F" d="M443.955,155.938c-4.055-3.941-7.295-7.965-10.51-12.291c-1.684-2.267-3.283-4.618-4.574-7.129
	c-2.428-4.721-4.256-9.744-5.893-14.794c-0.908-2.798-1.266-5.865-2.166-8.553l-0.023,42.746l-8.045-0.014l-0.02-71.203
	c0,0,22.336,0,25.805,0c3.137,0.623,5.295,0.863,7.469,2.299c1.941,1.281,3.75,3.129,4.512,5.327
	c1.473,4.255,1.459,9.438-0.484,13.499c-1.346,2.815-4.189,4.94-7.074,6.135c-4.203,1.742-9.074,0.876-13.615,0.971
	c0.029,5.769,0.607,8.594,1.77,12.711c0.971,3.436,2.76,6.588,4.289,9.813c1.506,3.179,2.949,6.408,4.811,9.394
	c2.488,3.988,4.645,6.579,8.443,11.296C448.648,156.145,445.044,156.461,443.955,155.938L443.955,155.938z M420.792,104.695
	c6.273,0.065,13.865-0.017,18.619,0c1.771-1.067,3.1-2.029,3.779-3.641c0.633-1.497,0.639-3.395-0.031-4.875
	c-0.689-1.529-1.555-2.666-3.754-3.352c-3.619,0.063-18.613,0-18.613,0V104.695z"/>
</svg>
